<svg width="34" height="30" viewBox="0 0 34 30" fill="none" xmlns="http://www.w3.org/2000/svg">
<path d="M0.333374 2.49996C0.333374 1.94743 0.552868 1.41752 0.943569 1.02682C1.33427 0.63612 1.86417 0.416626 2.41671 0.416626H31.5834C32.1359 0.416626 32.6658 0.63612 33.0565 1.02682C33.4472 1.41752 33.6667 1.94743 33.6667 2.49996C33.6667 3.05249 33.4472 3.5824 33.0565 3.9731C32.6658 4.3638 32.1359 4.58329 31.5834 4.58329H2.41671C1.86417 4.58329 1.33427 4.3638 0.943569 3.9731C0.552868 3.5824 0.333374 3.05249 0.333374 2.49996Z" fill="white"/>
<path d="M0.333374 27.5C0.333374 26.9474 0.552868 26.4175 0.943569 26.0268C1.33427 25.6361 1.86417 25.4166 2.41671 25.4166H31.5834C32.1359 25.4166 32.6658 25.6361 33.0565 26.0268C33.4472 26.4175 33.6667 26.9474 33.6667 27.5C33.6667 28.0525 33.4472 28.5824 33.0565 28.9731C32.6658 29.3638 32.1359 29.5833 31.5834 29.5833H2.41671C1.86417 29.5833 1.33427 29.3638 0.943569 28.9731C0.552868 28.5824 0.333374 28.0525 0.333374 27.5Z" fill="white"/>
<path d="M2.41671 12.9166C1.86417 12.9166 1.33427 13.1361 0.943569 13.5268C0.552868 13.9175 0.333374 14.4474 0.333374 15C0.333374 15.5525 0.552868 16.0824 0.943569 16.4731C1.33427 16.8638 1.86417 17.0833 2.41671 17.0833H19.0834C19.6359 17.0833 20.1658 16.8638 20.5565 16.4731C20.9472 16.0824 21.1667 15.5525 21.1667 15C21.1667 14.4474 20.9472 13.9175 20.5565 13.5268C20.1658 13.1361 19.6359 12.9166 19.0834 12.9166H2.41671Z" fill="white"/>
</svg>
